<svg version="1.2" xmlns="http://www.w3.org/2000/svg" viewBox="0 0 86 31" width="86" height="31"><defs><clipPath clipPathUnits="userSpaceOnUse" id="cp1"><path d="m-930-3206h1440v4680h-1440z"/></clipPath></defs><style>.a{fill:#8989a2}</style><g clip-path="url(#cp1)"><path fill-rule="evenodd" class="a" d="m21.9 17.2c-0.1 0.5-0.1 1 0.3 1.3 0.3 0.4 0.7 0.3 1.2 0.3 0.8-0.1 1.7-0.3 2.5 0 0.9 0.4 1.1 1.5 0.7 2.3-0.3 0.6-0.8 1-1.3 1.5-1.6 1.7-2.7 3.7-3.9 5.7-0.5 0.8-1.1 1.8-2.2 1.9-0.9 0.1-1.9-0.4-2.1-1.4-0.1-1 0.8-1.9 1.5-2.6q0.6-0.7 1.3-1.4 0.7-0.8 1.4-1.7c0.5-0.7 1.3-1.9 0.7-2.7-0.5-0.7-1.4-0.5-2.1-0.3-0.8 0.3-1.4 1-2 1.7-0.6 0.8-1 1.7-1.5 2.6-0.4 0.7-0.8 1.4-1.5 1.9-0.7 0.4-1.6 0.2-2.1-0.4-0.5-0.7-0.2-1.7 0.3-2.4q0.6-0.9 1.3-1.6 1.2-1.2 2.4-2.4 0.6-0.6 1.1-1.3c0.3-0.4 0.8-0.9 0.6-1.5-0.2-1-1.9-0.6-2.6-0.3-1 0.5-1.7 1.3-2.5 2.1q-1.1 1.3-2 2.8c-1.3 1.9-2.5 4-3.9 5.9-0.5 0.8-1.2 1.7-2.2 1.9-0.5 0.1-1.1 0-1.5-0.3-0.4-0.3-0.6-0.7-0.7-1.3-0.1-0.8 0.4-1.7 0.9-2.4q0.7-0.9 1.5-1.8 1.9-2.4 3.9-4.7 1.7-2 3.3-4c0.6-0.8 1.2-1.6 1.8-2.4 0.5-0.8 1-1.6 1.8-2.2 0.6-0.4 1.5-0.7 2.2-0.2 0.8 0.7 0.4 1.9 0.1 2.6-0.4 0.8-0.7 1.8 0.3 2.2 0.7 0.3 1.5 0 2.2 0.4 0.8 0.4 1.1 1.4 0.8 2.2zm-14.5 1c-0.7 1.1-1.4 2.2-2.4 3.1-0.6 0.6-1.6 1.1-2.4 0.6-0.4-0.2-0.7-0.6-0.7-1.1-0.1-0.9 0.4-1.8 1-2.5 0.7-0.7 1.5-1.3 2.2-2.1 0.6-0.6 1.5-1.4 1.8-2.4 0.1-0.4 0-0.9-0.5-1.1-0.4-0.1-0.9 0.1-1.2 0.4-0.8 0.6-1.2 1.6-1.8 2.3-0.7 0.7-1.8 0.9-2.4 0-0.5-0.7-0.1-1.7 0.4-2.4 0.7-0.8 1.5-1.5 2.3-2.3q1.1-1 1.9-2.3c0.4-0.5 1.5-1.9 0.6-2.4-0.4-0.3-0.9 0-1.4-0.1-0.4 0-0.7-0.3-0.9-0.7-0.3-0.8 0.5-2 1-2.7 0.5-0.7 1.2-1.5 2.1-1.8 0.9-0.3 1.9 0.3 1.8 1.3 0 1-1.1 1.6-1.7 2.2-0.2 0.2-0.7 0.6-0.5 1 0.1 0.4 0.7 0.3 0.9 0.1 0.4-0.3 0.8-0.8 1.3-0.9 0.4-0.1 0.9 0 1.1 0.3 0.5 0.6 0.6 1.3 0.3 2-0.3 0.7-0.9 1.1-1.4 1.7q-0.8 0.8-1.5 1.7c-0.2 0.4-0.4 0.8-0.2 1.3 0.1 0.3 0.4 0.5 0.7 0.5 1 0 1.7-1.1 2.2-1.7 0.8-0.8 1.4-1.7 2-2.6 0.6-0.8 1.2-1.5 1.8-2.3 0.5-0.9 1.1-1.8 1.7-2.6 0.6-0.7 1.3-1.5 2.3-1.5 0.4-0.1 0.9 0.1 1.2 0.4 0.3 0.4 0.4 0.8 0.4 1.2 0 1-0.5 1.7-1.1 2.4-1.7 1.8-3.4 3.5-5 5.3q-2.8 3.3-5.2 6.8zm18.1-13.6c-0.4 0.5-1 1-1.5 1.5-0.5 0.5-1.2 1.3-1 2 0.2 0.8 1.2 0.8 1.7 0.4 0.6-0.5 1.1-1.3 1.9-1.1 0.9 0.2 1.1 1.2 0.9 1.9-0.1 0.8-0.7 1.3-1.3 1.9q-0.9 0.9-1.6 2c-0.3 0.6-0.7 1.2-1.4 1.2-0.7 0.1-1.3-0.5-1.5-1.2-0.2-0.8 0.3-1.5 0.8-2.2 0.4-0.5 0.9-1.2 0.3-1.8-0.6-0.6-1.5-0.2-2.2 0.1-0.7 0.3-1.5 0.3-1.9-0.5-0.4-0.7-0.1-1.5 0.3-2 0.6-1 1.5-1.8 2.2-2.7 0.9-1.2 1.4-3.1 3.2-2.9 0.7 0.1 1.4 0.5 1.7 1.2 0.2 0.8 0 1.7-0.6 2.2zm7.4 1.1h4.7l4.9 12.8 4.8-12.8h4.7v18.8h-3.5v-14.2l-5.6 14.2h-1.1l-5.7-14.2v14.2h-3.2zm21.1 5h3.2v13.7h-3.2zm0.2-2.8c-0.3-0.3-0.5-0.8-0.5-1.3-0.1-1 0.7-1.8 1.7-1.8 1.1 0 1.9 0.8 1.9 1.8 0 1-0.8 1.8-1.8 1.9-0.4 0-0.9-0.2-1.3-0.6zm5 2.8h3.2v2.2c0.6-1.3 2.2-2.5 4.4-2.5 2.8 0 4.7 1.6 4.7 5.4v8.6h-3.2v-8.3c0-2.1-0.8-3-2.7-3-1.8 0-3.2 1.1-3.2 3.3v8h-3.2zm13.4 7v-0.2c0-4.2 3-7.1 6.9-7.1 3.4 0 6.4 2.1 6.4 7v0.9h-10c0.1 2.6 1.4 4.1 3.8 4.1 1.9 0 2.9-0.8 3.1-2.1h3.1c-0.5 2.8-2.8 4.4-6.3 4.4-4 0-7-2.6-7-7zm10.2-1.5c-0.2-2.4-1.4-3.5-3.3-3.5-2 0-3.2 1.3-3.6 3.5z"/></g></svg>