<svg version="1.2" xmlns="http://www.w3.org/2000/svg" viewBox="0 0 87 30" width="87" height="30"><defs><clipPath clipPathUnits="userSpaceOnUse" id="cp1"><path d="m-1104-3206h1440v4680h-1440z"/></clipPath></defs><style>.a{fill:#8989a2}</style><g clip-path="url(#cp1)"><path fill-rule="evenodd" class="a" d="m17.3 28.2c2.2 0 3.9-1 4.7-2.6 0.9-1.7 0.6-3.8-0.6-5.3q-4.4-5.3-8.9-10.6c-0.4-0.6-0.3-1.4 0.2-1.9l4.5-3.8-7.7 3.4q-0.1 0-0.2 0.2 0 0.1 0.1 0.2c3.5 4.3 7.1 8.5 10.6 12.8 1 1.2 1.3 2.5 0.8 3.9-0.5 1.4-1.5 2.4-2.9 2.6l-5.8 1.1zm5.4-26.7l-8.5 7.5 8.5 10.1c1.6 2 2.1 4.8 0.9 7.2-1 2.2-3.3 3.7-6.2 3.7h-15.3c-0.5 0-0.9-0.4-0.9-0.9 0-0.3 0.1-0.5 0.3-0.7l0.7-0.6 7.8-6.8-8.5-10.1c-1.7-2-2.1-4.8-1-7.2 1.1-2.2 3.3-3.7 6.2-3.7h15 0.4c0.5 0 0.9 0.4 0.9 0.9q0 0.4-0.3 0.6zm-7.9 21.1q0.1 0 0.1-0.2 0.1-0.1 0-0.3c-7.7-9.2-3.8-4.6-10.6-12.7-1-1.2-1.3-2.5-0.8-4 0.4-1.3 1.5-2.3 2.9-2.6l5.8-1h-5.3c-2.1 0-3.8 1-4.6 2.5-1 1.8-0.6 3.9 0.6 5.4q4.4 5.3 8.8 10.6c0.5 0.6 0.4 1.4-0.2 1.9l-0.8 0.7h0.1l-3.8 3.1zm2.6 2.7c0.7-0.1 1.3-0.7 1.6-1.4 0.2-0.8 0.1-1.5-0.4-2.1-3.7-4.4-7.3-8.8-10.9-13.2-0.4-0.4-0.5-1-0.4-1.5 0.1-0.6 0.5-1 1-1.2l6.3-2.7-7.7 1.4c-0.8 0.1-1.4 0.7-1.6 1.4-0.3 0.8-0.1 1.5 0.4 2.2 3.6 4.3 7.3 8.7 10.9 13.1q0.5 0.7 0.4 1.5c-0.2 0.6-0.5 1-1.1 1.3l-2.5 1.1-3.7 1.6 4.6-0.9zm54.2-4.6c-0.1-0.3-2.9-5.1-3.1-5.3v5.3c-0.4 0.1-2.8 0-3.6 0v-15.6c0.4-0.1 3.2-0.1 3.6 0v9.5c0.4-0.6 3.2-5.3 3.3-5.3h4.2l-3.6 5.6 3.2 5.1c0.2 0.3 0.3 0.5 0.4 0.7zm7.5-4.7c0.1 0.5 0.7 1 1 1.2 0.8 0.5 1.8 0.7 2.7 0.7h3v2.5c-1.4 0.5-3.1 0.7-4.5 0.5-2.7-0.3-5.1-1.7-5.8-4.5-0.7-2.9 0.5-5.5 3.1-6.8 1.3-0.6 3-0.7 4.4-0.2 1.3 0.4 2.3 1.2 2.9 2.2 0.8 1.4 0.7 2.6 0.5 4.4zm3.7-2.4c0-1.3-0.9-1.8-1.8-1.8-1 0-2 0.7-2 1.8zm-28.7-1.4v-2.3c0.8-0.3 0.7-0.4 2-0.6 2.3-0.5 4.8-0.1 6.3 1.6 0.9 1 1 2.2 1 3.7l0.1 6.1h-2.7l-0.6-1.1c-0.5 0.5-1.2 1.4-3.1 1.4-1.7 0-3.4-0.9-3.7-2.8-0.4-1.9 0.6-3 1.8-3.6 1.5-0.7 3-0.6 4.8-0.6-0.1-1.2-1.3-1.7-2.5-1.8q-0.1 0-0.2 0zm6 4c-0.5-0.2-3.4-0.3-3.1 1.4 0.3 1.2 2.7 0.7 3.1 0.2zm-29.1 1.9h3.7c0.6 0 2.1 0 2.2-0.8 0-0.5-0.8-0.6-1.2-0.7-1.8-0.5-3.2-0.5-4.2-1.9-1.2-1.5-0.6-4.1 1.6-5.1 1.5-0.7 3.6-0.6 5.2-0.1 0.3 0.1 1.3 0.5 1.3 0.7v1.7h-3.4c-0.7 0-1.4 0-1.8 0.4-0.1 0.2-0.2 0.5 0 0.7 0.7 0.7 4.3 0.4 5.5 2.6 0.5 0.9 0.4 2.2-0.1 3.1-1.2 2-3.5 2.4-5.8 2.2q-1.2-0.2-2.3-0.6c-0.2-0.1-0.6-0.3-0.7-0.4zm13.9 2.6h-3.6v-15.7h3.6v5.7c0.6-0.7 1.6-1.7 3.8-1.7 1.3 0 2.6 0.5 3.3 1.7 0.5 0.8 0.5 2 0.5 3.2-0.1 2.2 0 4.5-0.1 6.8h-3.6v-5.3l0.1-1c0-1.2-0.4-2.3-2-2.3-0.8 0-1.3 0.4-2 0.9z"/></g></svg>