<svg version="1.2" xmlns="http://www.w3.org/2000/svg" viewBox="0 0 26 18" width="26" height="18"><defs><clipPath clipPathUnits="userSpaceOnUse" id="cp1"><path d="m-660-916h1440v4680h-1440z"/></clipPath></defs><style>.a{fill:#722ed1}</style><g clip-path="url(#cp1)"><path fill-rule="evenodd" class="a" d="m25.6 9.2c-2.4 4.8-7.2 8-12.7 8-5.5 0-10.3-3.2-12.7-8-0.3-0.4-0.3-0.9 0-1.3 2.4-4.7 7.2-7.9 12.7-7.9 5.5 0 10.3 3.2 12.7 7.9 0.2 0.4 0.2 0.9 0 1.3zm-6.3-0.6c0-3.6-2.9-6.5-6.4-6.5-3.6 0-6.5 2.9-6.5 6.5 0 3.6 2.9 6.4 6.5 6.4 3.5 0 6.4-2.8 6.4-6.4zm-2.3-1.4c0.5 1.7 0 3.7-1.5 4.8-1.5 1.1-3.5 1.2-5 0.1-1.5-1-2.2-2.9-1.7-4.6 0.8 0.6 2 0.5 2.7-0.3 0.8-0.7 0.9-1.9 0.3-2.7q0.5-0.2 1.1-0.2c1.8 0 3.5 1.2 4.1 2.9z"/></g></svg>