<svg version="1.2" xmlns="http://www.w3.org/2000/svg" viewBox="0 0 21 17" width="21" height="17"><defs><clipPath clipPathUnits="userSpaceOnUse" id="cp1"><path d="m-1267-4388h1440v4680h-1440z"/></clipPath></defs><style>.a{fill:#722ed1}</style><g clip-path="url(#cp1)"><path class="a" d="m20.5 7.6l-19.2-7.6c-0.4-0.1-0.7 0.3-0.5 0.6l1.5 5.7c0.1 0.3 0.4 0.6 0.8 0.6l13.3 1c0 0 0.2 0 0.2 0.1 0 0.1-0.1 0.1-0.2 0.1l-13.2 0.8c-0.3 0-0.6 0.3-0.7 0.7l-1.5 6.1c-0.1 0.4 0.3 0.7 0.6 0.6l18.9-7.9c0.4-0.1 0.4-0.7 0-0.8z"/></g></svg>