<svg version="1.2" xmlns="http://www.w3.org/2000/svg" viewBox="0 0 17 16" width="17" height="16"><defs><clipPath clipPathUnits="userSpaceOnUse" id="cp1"><path d="m-255-236h1440v4680h-1440z"/></clipPath></defs><style>.a{fill:#722ed1}</style><g clip-path="url(#cp1)"><path class="a" d="m14 6c-0.4 0-0.8-0.3-0.8-0.8 0-0.8-0.6-1.5-1.5-1.5-0.4 0-0.7-0.3-0.7-0.7 0-0.4 0.3-0.8 0.7-0.8 0.9 0 1.5-0.6 1.5-1.5 0-0.4 0.4-0.7 0.8-0.7 0.4 0 0.7 0.3 0.7 0.7 0 0.9 0.7 1.5 1.5 1.5 0.5 0 0.8 0.4 0.8 0.8 0 0.4-0.3 0.7-0.8 0.7-0.8 0-1.5 0.7-1.5 1.5 0 0.5-0.3 0.8-0.7 0.8zm-7 10c-0.6 0-1-0.4-1-1 0-2.2-1.8-4-4-4-0.6 0-1-0.4-1-1 0-0.6 0.4-1 1-1 2.2 0 4-1.8 4-4 0-0.6 0.4-1 1-1 0.6 0 1 0.4 1 1 0 2.2 1.8 4 4 4 0.6 0 1 0.4 1 1 0 0.6-0.4 1-1 1-2.2 0-4 1.8-4 4 0 0.6-0.4 1-1 1z"/></g></svg>