<svg version="1.2" xmlns="http://www.w3.org/2000/svg" viewBox="0 0 24 24" width="24" height="24"><defs><clipPath clipPathUnits="userSpaceOnUse" id="cp1"><path d="m-254-2299h1440v4680h-1440z"/></clipPath></defs><style>.a{fill:#722ed1}</style><g clip-path="url(#cp1)"><path class="a" d="m12.4 2.4v-2.4h-1.6v2.4c-1.7 0.4-3.1 1.9-3.1 3.8 0 2.1 1.8 3.9 3.9 3.9 2.1 0 3.9-1.8 3.9-3.9 0-1.9-1.3-3.4-3.1-3.8zm7.4 14.6h1.9v-1.5h-2.7l-3-6.1c-0.7 0.9-1.5 1.5-2.6 1.9l2.1 4.2h-3.1v-1.6h-1.6v1.6h-3.1l2.1-4.2c-1-0.4-1.9-1-2.5-1.9l-3.1 6.1h-2.7v1.5h1.9l-3.4 6.9c1.8 0.4 3.7-0.4 4.5-2.1l2.4-4.8h3.9v1.6h1.6v-1.6h3.9l2.4 4.8c0.8 1.7 2.7 2.5 4.5 2.1z"/></g></svg>