<svg version="1.2" xmlns="http://www.w3.org/2000/svg" viewBox="0 0 25 25" width="25" height="25"><defs><clipPath clipPathUnits="userSpaceOnUse" id="cp1"><path d="m-736-1729h1440v4680h-1440z"/></clipPath></defs><style>.a{fill:#722ed1}</style><g clip-path="url(#cp1)"><path class="a" d="m8 7.6v-1.8c1.4-0.5 2.2-1.9 2-3.3-0.3-1.4-1.5-2.5-3-2.5-1.5 0-2.7 1.1-3 2.5-0.2 1.4 0.6 2.8 2 3.3v2.2q0 0.4 0.3 0.7l2.7 2.7v11.6c0 0.6 0.4 1 1 1 0.6 0 1-0.4 1-1v-12q0-0.4-0.3-0.7zm-4 9v-1.8c1.4-0.5 2.2-1.9 2-3.3-0.3-1.4-1.5-2.5-3-2.5-1.5 0-2.7 1.1-2.9 2.5-0.3 1.4 0.5 2.8 1.9 3.3v2.2q0 0.4 0.3 0.7l2.7 2.7v2.6c0 0.6 0.5 1 1 1 0.6 0 1-0.4 1-1v-3q0-0.4-0.3-0.7zm14-8.6v-2.2c1.4-0.4 2.2-1.9 2-3.3-0.3-1.4-1.5-2.5-3-2.5-1.4 0-2.7 1.1-2.9 2.5-0.3 1.4 0.5 2.9 1.9 3.3v1.8l-2.7 2.7q-0.3 0.3-0.3 0.7v12c0 0.6 0.5 1 1 1 0.6 0 1-0.4 1-1v-11.6l2.7-2.7q0.3-0.3 0.3-0.7zm6 4c0-1.5-1.1-2.8-2.6-3-1.6-0.1-3 0.8-3.3 2.3-0.4 1.5 0.5 3 1.9 3.5v1.8l-2.7 2.7q-0.3 0.3-0.3 0.7v3c0 0.6 0.5 1 1 1 0.6 0 1-0.4 1-1v-2.6l2.7-2.7q0.3-0.3 0.3-0.7v-2.2c1.2-0.4 2-1.5 2-2.8z"/></g></svg>